<svg width="30" height="24" viewBox="0 0 30 24" fill="none" xmlns="http://www.w3.org/2000/svg">
<path d="M25.835 0.980469H4.16502C1.86486 0.980469 0 2.84533 0 5.14549V18.8555C0 21.1556 1.86486 23.0205 4.16502 23.0205H25.835C28.1351 23.0205 30 21.1556 30 18.8555V5.14549C30 2.84533 28.1351 0.980469 25.835 0.980469ZM10.4394 15.8513L4.60699 20.8271C4.19561 21.1782 3.57715 21.1293 3.22611 20.7175C2.87502 20.3062 2.92383 19.6877 3.33568 19.3367L9.16811 14.3609C9.57943 14.0098 10.1978 14.0586 10.5489 14.4705C10.9 14.8818 10.8512 15.5002 10.4394 15.8513ZM15 13.9596C14.2199 13.9577 13.4637 13.6985 12.8725 13.1872L12.8729 13.1877L12.8711 13.1863C12.8715 13.1867 12.8721 13.1867 12.8725 13.1872L3.92355 5.42006C3.51457 5.0651 3.47104 4.4467 3.82547 4.03824C4.18037 3.62926 4.79883 3.58572 5.20723 3.94016L14.1587 11.7092C14.35 11.8795 14.6652 12.0024 15 12.0005C15.3343 12.0015 15.6442 11.8819 15.8461 11.7059L15.8504 11.7021L24.7927 3.94022C25.2012 3.58578 25.8196 3.62932 26.1745 4.0383C26.5289 4.4467 26.4854 5.06516 26.0764 5.42012L17.1251 13.1896C16.5358 13.6955 15.7806 13.9586 15 13.9596ZM26.7743 20.7175C26.4232 21.1293 25.8047 21.1782 25.3935 20.8271L19.5611 15.8513C19.1493 15.5002 19.1004 14.8818 19.4515 14.4705C19.8026 14.0586 20.421 14.0098 20.8324 14.3609L26.6648 19.3367C27.0766 19.6877 27.1254 20.3062 26.7743 20.7175Z" fill="#FCF7F0"/>
</svg>
