<svg width="30" height="30" viewBox="0 0 30 30" fill="none" xmlns="http://www.w3.org/2000/svg">
<path d="M25.5614 25.5619H21.1164V18.6006C21.1164 16.9406 21.0867 14.8037 18.8045 14.8037C16.4893 14.8037 16.1351 16.6123 16.1351 18.4797V25.5614H11.69V11.2462H15.9573V13.2025H16.017C16.8872 11.7147 18.505 10.8262 20.2273 10.8901C24.7326 10.8901 25.5633 13.8535 25.5633 17.7088L25.5614 25.5619ZM6.67454 9.28938C5.24991 9.28963 4.09481 8.13492 4.09455 6.71026C4.09429 5.2856 5.24898 4.13047 6.67361 4.13022C8.09824 4.12996 9.25334 5.28467 9.2536 6.70933C9.25372 7.39348 8.98207 8.04966 8.4984 8.53351C8.01473 9.01736 7.35867 9.28926 6.67454 9.28938ZM8.89707 25.5619H4.44738V11.2462H8.89707V25.5619ZM27.7775 0.00223697H2.21373C1.00554 -0.0113978 0.0147454 0.956413 0 2.16462V27.835C0.0142405 29.0437 1.00495 30.0125 2.21373 29.9998H27.7775C28.9886 30.0148 29.9832 29.0461 30 27.835V2.16277C29.9827 0.952174 28.9881 -0.0155815 27.7775 0.000190064" fill="#FCF7F0"/>
</svg>
