<svg width="30" height="30" viewBox="0 0 30 30" fill="none" xmlns="http://www.w3.org/2000/svg">
<path d="M14.5312 20.5077C14.6729 20.5887 14.8333 20.6313 14.9965 20.6313C15.1597 20.6313 15.32 20.5887 15.4617 20.5077C15.7488 20.3425 22.493 16.4061 22.493 9.38076C22.4341 7.43228 21.6188 5.5833 20.22 4.2256C18.8212 2.8679 16.9487 2.10818 14.9993 2.10742C13.05 2.10666 11.1769 2.86492 9.777 4.22152C8.37712 5.57812 7.56044 7.42647 7.5 9.3749C7.5 16.4061 14.2477 20.3366 14.5312 20.5077ZM15 6.5624C15.5563 6.5624 16.1 6.72735 16.5625 7.03639C17.0251 7.34543 17.3855 7.78468 17.5984 8.2986C17.8113 8.81252 17.867 9.37802 17.7585 9.92359C17.6499 10.4692 17.3821 10.9703 16.9887 11.3636C16.5954 11.757 16.0943 12.0248 15.5487 12.1334C15.0031 12.2419 14.4376 12.1862 13.9237 11.9733C13.4098 11.7604 12.9705 11.4 12.6615 10.9374C12.3525 10.4749 12.1875 9.93116 12.1875 9.3749C12.1875 8.62898 12.4838 7.91361 13.0113 7.38616C13.5387 6.85871 14.2541 6.5624 15 6.5624ZM28.125 21.5624C28.125 25.2163 21.3621 27.1874 15 27.1874C8.63789 27.1874 1.875 25.2163 1.875 21.5624C1.875 19.8526 3.42422 18.3386 6.23789 17.3003C6.46863 17.2241 6.71996 17.2404 6.93888 17.3459C7.1578 17.4513 7.32722 17.6377 7.41141 17.8657C7.4956 18.0936 7.48799 18.3454 7.39018 18.5678C7.29237 18.7903 7.11201 18.966 6.88711 19.0581C4.95234 19.7741 3.75 20.7327 3.75 21.5624C3.75 23.128 8.02969 25.3124 15 25.3124C21.9703 25.3124 26.25 23.128 26.25 21.5624C26.25 20.7327 25.0477 19.7741 23.1129 19.0593C22.888 18.9672 22.7076 18.7914 22.6098 18.569C22.512 18.3465 22.5044 18.0948 22.5886 17.8668C22.6728 17.6389 22.8422 17.4525 23.0611 17.347C23.28 17.2416 23.5314 17.2252 23.7621 17.3015C26.5758 18.3386 28.125 19.8526 28.125 21.5624Z" fill="#FCF7F0"/>
</svg>
