<svg width="340" height="113" viewBox="0 0 340 113" fill="none" xmlns="http://www.w3.org/2000/svg">
<path d="M45.2292 90.6775C45.2292 90.6775 15.1914 77.1965 14.073 34.6804L45.2292 22.3228L76.3855 34.6804C76.3855 34.6804 77.8854 74.4681 45.8345 90.3832L45.2292 90.6775Z" fill="#F26822"/>
<path d="M46.8259 90.3832L46.24 90.6775V22.3228L76.3859 34.6804C76.3859 34.6804 77.8378 74.4681 46.8259 90.3832Z" fill="#F26822"/>
<path opacity="0.2" d="M46.8259 90.3832L46.24 90.6775V22.3228L76.3859 34.6804C76.3859 34.6804 77.8378 74.4681 46.8259 90.3832Z" fill="white"/>
<path d="M81.9695 53.8387C81.9695 53.8387 85.5568 37.476 84.6072 29.848L46.0839 14.829L7.83753 29.848V41.8894L86.8493 63.9305C86.8493 63.9305 79.1736 91.8868 46.0839 106.761C46.0839 106.761 10.7522 93.0857 3.35348 55.973L11.649 59.4511C11.649 59.4511 21.4875 88.6063 46.0839 97.565C46.0839 97.565 72.0386 84.1138 75.8501 68.581L0.478381 47.8443C0.478381 47.8443 -0.141469 25.9746 0.0299802 24.4595C0.201429 22.9445 46.1894 6.23914 46.1894 6.23914L92.3488 24.4069C92.3488 24.4069 93.4698 45.6837 89.1572 57.5408L81.9695 53.8387Z" fill="white"/>
<path opacity="0.2" d="M46.24 6.23914V15.045L84.6216 30.3478C84.6216 30.3478 85.4111 37.3952 81.99 54.7921L89.1611 58.5104C89.1611 58.5104 93.2663 49.0468 92.3453 24.7502L46.24 6.23914Z" fill="#231F20"/>
<path d="M129.601 45.4825C126.963 45.4825 124.438 45.1126 122.025 44.3727C119.613 43.6007 117.699 42.6196 116.283 41.4295L118.455 36.5562C119.806 37.6177 121.478 38.5023 123.473 39.21C125.467 39.9176 127.51 40.2715 129.601 40.2715C131.37 40.2715 132.801 40.0785 133.895 39.6925C134.989 39.3065 135.793 38.7918 136.307 38.1484C136.822 37.4729 137.079 36.717 137.079 35.8807C137.079 34.8513 136.709 34.0311 135.97 33.4199C135.23 32.7766 134.265 32.278 133.075 31.9241C131.917 31.5381 130.614 31.1843 129.166 30.8626C127.751 30.541 126.32 30.171 124.872 29.7529C123.457 29.3025 122.154 28.7396 120.964 28.0641C119.806 27.3564 118.857 26.4236 118.117 25.2656C117.377 24.1076 117.007 22.6279 117.007 20.8265C117.007 18.993 117.49 17.3203 118.455 15.8085C119.452 14.2645 120.948 13.0421 122.942 12.1415C124.969 11.2086 127.526 10.7422 130.614 10.7422C132.64 10.7422 134.651 10.9995 136.645 11.5142C138.64 12.0289 140.377 12.7687 141.856 13.7337L139.878 18.607C138.366 17.7064 136.806 17.0469 135.198 16.6288C133.589 16.1784 132.045 15.9533 130.566 15.9533C128.829 15.9533 127.413 16.1623 126.32 16.5805C125.258 16.9987 124.47 17.5455 123.955 18.221C123.473 18.8965 123.232 19.6685 123.232 20.537C123.232 21.5664 123.585 22.4027 124.293 23.0461C125.033 23.6572 125.982 24.1397 127.14 24.4936C128.33 24.8474 129.649 25.2012 131.096 25.5551C132.544 25.8768 133.975 26.2467 135.391 26.6648C136.838 27.083 138.141 27.6299 139.299 28.3054C140.489 28.9809 141.438 29.8976 142.146 31.0556C142.886 32.2136 143.255 33.6772 143.255 35.4464C143.255 37.2478 142.757 38.9204 141.76 40.4645C140.795 41.9763 139.299 43.1987 137.272 44.1315C135.246 45.0322 132.689 45.4825 129.601 45.4825ZM164.771 45V39.789L164.433 38.6792V29.5599C164.433 27.7907 163.902 26.4236 162.841 25.4586C161.779 24.4614 160.171 23.9628 158.016 23.9628C156.568 23.9628 155.137 24.188 153.721 24.6383C152.338 25.0887 151.164 25.7159 150.199 26.5201L147.835 22.1293C149.218 21.0678 150.858 20.2797 152.756 19.765C154.686 19.2182 156.681 18.9448 158.739 18.9448C162.471 18.9448 165.35 19.8455 167.376 21.6468C169.435 23.416 170.464 26.1663 170.464 29.8976V45H164.771ZM156.665 45.3378C154.735 45.3378 153.046 45.0161 151.598 44.3727C150.151 43.6972 149.025 42.7805 148.221 41.6225C147.449 40.4323 147.063 39.0974 147.063 37.6177C147.063 36.1702 147.4 34.8674 148.076 33.7094C148.784 32.5514 149.926 31.6346 151.502 30.9591C153.078 30.2836 155.169 29.9459 157.774 29.9459H165.253V33.9507H158.209C156.15 33.9507 154.767 34.2884 154.059 34.9639C153.351 35.6073 152.998 36.4114 152.998 37.3764C152.998 38.4701 153.432 39.3386 154.3 39.982C155.169 40.6253 156.375 40.947 157.919 40.947C159.399 40.947 160.718 40.6092 161.876 39.9337C163.066 39.2582 163.918 38.261 164.433 36.9422L165.446 40.561C164.867 42.0728 163.822 43.2469 162.31 44.0832C160.83 44.9196 158.948 45.3378 156.665 45.3378ZM179.025 45V17.7868C179.025 15.0847 179.813 12.9296 181.389 11.3212C182.997 9.6807 185.281 8.86044 188.241 8.86044C189.302 8.86044 190.299 8.97303 191.232 9.1982C192.197 9.42336 193.001 9.7772 193.645 10.2597L192.004 14.7952C191.554 14.4414 191.039 14.1841 190.46 14.0232C189.881 13.8302 189.286 13.7337 188.675 13.7337C187.42 13.7337 186.471 14.0876 185.828 14.7952C185.185 15.4707 184.863 16.5001 184.863 17.8833V20.7783L185.056 23.4803V45H179.025ZM174.779 24.2523V19.4273H191.956V24.2523H174.779ZM207.75 45.3378C204.887 45.3378 202.378 44.7748 200.223 43.649C198.1 42.491 196.443 40.9148 195.253 38.9204C194.095 36.9261 193.516 34.6583 193.516 32.1171C193.516 29.5438 194.079 27.276 195.205 25.3138C196.363 23.3195 197.939 21.7594 199.933 20.6335C201.96 19.5077 204.26 18.9448 206.833 18.9448C209.342 18.9448 211.578 19.4916 213.54 20.5853C215.502 21.679 217.046 23.223 218.172 25.2173C219.298 27.2117 219.861 29.5599 219.861 32.2619C219.861 32.5192 219.844 32.8087 219.812 33.1304C219.812 33.4521 219.796 33.7577 219.764 34.0472H198.293V30.0424H216.58L214.215 31.2969C214.247 29.8172 213.942 28.5144 213.298 27.3886C212.655 26.2628 211.771 25.3782 210.645 24.7348C209.551 24.0915 208.28 23.7698 206.833 23.7698C205.353 23.7698 204.05 24.0915 202.925 24.7348C201.831 25.3782 200.962 26.2788 200.319 27.4369C199.708 28.5627 199.402 29.8976 199.402 31.4416V32.4066C199.402 33.9507 199.756 35.3178 200.464 36.5079C201.172 37.6981 202.169 38.6149 203.455 39.2582C204.742 39.9015 206.222 40.2232 207.894 40.2232C209.342 40.2232 210.645 39.998 211.803 39.5477C212.961 39.0974 213.99 38.3897 214.891 37.4247L218.124 41.14C216.966 42.491 215.502 43.5364 213.733 44.2762C211.996 44.9839 210.001 45.3378 207.75 45.3378ZM129.601 102.483C126.963 102.483 124.438 102.113 122.025 101.373C119.613 100.601 117.699 99.6196 116.283 98.4295L118.455 93.5562C119.806 94.6177 121.478 95.5023 123.473 96.21C125.467 96.9176 127.51 97.2715 129.601 97.2715C131.37 97.2715 132.801 97.0785 133.895 96.6925C134.989 96.3065 135.793 95.7918 136.307 95.1484C136.822 94.4729 137.079 93.717 137.079 92.8807C137.079 91.8513 136.709 91.0311 135.97 90.4199C135.23 89.7766 134.265 89.278 133.075 88.9241C131.917 88.5381 130.614 88.1843 129.166 87.8626C127.751 87.541 126.32 87.171 124.872 86.7529C123.457 86.3025 122.154 85.7396 120.964 85.0641C119.806 84.3564 118.857 83.4236 118.117 82.2656C117.377 81.1076 117.007 79.6279 117.007 77.8265C117.007 75.993 117.49 74.3203 118.455 72.8085C119.452 71.2645 120.948 70.0421 122.942 69.1415C124.969 68.2086 127.526 67.7422 130.614 67.7422C132.64 67.7422 134.651 67.9995 136.645 68.5142C138.64 69.0289 140.377 69.7687 141.856 70.7337L139.878 75.607C138.366 74.7064 136.806 74.0469 135.198 73.6288C133.589 73.1784 132.045 72.9533 130.566 72.9533C128.829 72.9533 127.413 73.1623 126.32 73.5805C125.258 73.9987 124.47 74.5455 123.955 75.221C123.473 75.8965 123.232 76.6685 123.232 77.537C123.232 78.5664 123.585 79.4027 124.293 80.0461C125.033 80.6572 125.982 81.1397 127.14 81.4936C128.33 81.8474 129.649 82.2012 131.096 82.5551C132.544 82.8768 133.975 83.2467 135.391 83.6648C136.838 84.083 138.141 84.6299 139.299 85.3054C140.489 85.9809 141.438 86.8976 142.146 88.0556C142.886 89.2136 143.255 90.6772 143.255 92.4464C143.255 94.2478 142.757 95.9204 141.76 97.4645C140.795 98.9763 139.299 100.199 137.272 101.131C135.246 102.032 132.689 102.483 129.601 102.483ZM161.007 102.338C158.144 102.338 155.635 101.775 153.48 100.649C151.357 99.491 149.7 97.9148 148.51 95.9204C147.352 93.9261 146.773 91.6583 146.773 89.1171C146.773 86.5438 147.336 84.276 148.462 82.3138C149.62 80.3195 151.196 78.7594 153.191 77.6335C155.217 76.5077 157.517 75.9448 160.09 75.9448C162.599 75.9448 164.835 76.4916 166.797 77.5853C168.759 78.679 170.303 80.223 171.429 82.2173C172.555 84.2117 173.118 86.5599 173.118 89.2619C173.118 89.5192 173.102 89.8087 173.07 90.1304C173.07 90.4521 173.054 90.7577 173.021 91.0472H151.55V87.0424H169.837L167.473 88.2969C167.505 86.8172 167.199 85.5144 166.556 84.3886C165.913 83.2628 165.028 82.3782 163.902 81.7348C162.808 81.0915 161.538 80.7698 160.09 80.7698C158.611 80.7698 157.308 81.0915 156.182 81.7348C155.088 82.3782 154.22 83.2788 153.577 84.4369C152.965 85.5627 152.66 86.8976 152.66 88.4416V89.4066C152.66 90.9507 153.014 92.3178 153.721 93.5079C154.429 94.6981 155.426 95.6149 156.713 96.2582C157.999 96.9015 159.479 97.2232 161.152 97.2232C162.599 97.2232 163.902 96.998 165.06 96.5477C166.218 96.0974 167.247 95.3897 168.148 94.4247L171.381 98.14C170.223 99.491 168.759 100.536 166.99 101.276C165.253 101.984 163.259 102.338 161.007 102.338ZM190.733 102.338C188.031 102.338 185.618 101.775 183.495 100.649C181.404 99.491 179.764 97.9148 178.574 95.9204C177.383 93.9261 176.788 91.6583 176.788 89.1171C176.788 86.5438 177.383 84.276 178.574 82.3138C179.764 80.3195 181.404 78.7594 183.495 77.6335C185.618 76.5077 188.031 75.9448 190.733 75.9448C193.242 75.9448 195.445 76.4594 197.343 77.4888C199.273 78.486 200.737 79.9656 201.734 81.9278L197.102 84.6299C196.33 83.4075 195.381 82.5068 194.255 81.9278C193.161 81.3488 191.971 81.0593 190.684 81.0593C189.205 81.0593 187.87 81.381 186.68 82.0243C185.49 82.6677 184.557 83.6005 183.881 84.8229C183.206 86.013 182.868 87.4445 182.868 89.1171C182.868 90.7898 183.206 92.2373 183.881 93.4597C184.557 94.6499 185.49 95.5666 186.68 96.21C187.87 96.8533 189.205 97.175 190.684 97.175C191.971 97.175 193.161 96.8855 194.255 96.3065C195.381 95.7274 196.33 94.8268 197.102 93.6044L201.734 96.3065C200.737 98.2365 199.273 99.7322 197.343 100.794C195.445 101.823 193.242 102.338 190.733 102.338ZM217.852 102.338C215.665 102.338 213.735 101.936 212.062 101.131C210.389 100.295 209.087 99.0406 208.154 97.368C207.221 95.6631 206.755 93.524 206.755 90.9507V76.2343H212.786V90.1304C212.786 92.4464 213.3 94.1834 214.33 95.3414C215.391 96.4673 216.887 97.0302 218.817 97.0302C220.232 97.0302 221.455 96.7407 222.484 96.1617C223.546 95.5827 224.366 94.7142 224.945 93.5562C225.556 92.3982 225.862 90.9667 225.862 89.2619V76.2343H231.893V102H226.151V95.0519L227.164 97.175C226.296 98.8476 225.025 100.134 223.353 101.035C221.68 101.903 219.846 102.338 217.852 102.338ZM239.79 102V76.2343H245.532V83.3271L244.856 81.2523C245.628 79.5153 246.834 78.1965 248.475 77.2958C250.148 76.3951 252.222 75.9448 254.699 75.9448V81.6866C254.442 81.6222 254.201 81.5901 253.975 81.5901C253.75 81.5579 253.525 81.5418 253.3 81.5418C251.016 81.5418 249.199 82.2173 247.848 83.5683C246.497 84.8872 245.821 86.8655 245.821 89.5031V102H239.79ZM259.816 102V76.2343H265.847V102H259.816ZM262.855 71.9882C261.73 71.9882 260.797 71.6344 260.057 70.9267C259.349 70.2191 258.995 69.3666 258.995 68.3695C258.995 67.3401 259.349 66.4877 260.057 65.8122C260.797 65.1045 261.73 64.7507 262.855 64.7507C263.981 64.7507 264.898 65.0884 265.606 65.7639C266.346 66.4073 266.715 67.2275 266.715 68.2247C266.715 69.2862 266.362 70.1869 265.654 70.9267C264.946 71.6344 264.013 71.9882 262.855 71.9882ZM283.461 102.338C280.631 102.338 278.443 101.614 276.899 100.166C275.355 98.6868 274.583 96.5155 274.583 93.6527V70.5407H280.615V93.5079C280.615 94.7303 280.92 95.6792 281.531 96.3547C282.175 97.0302 283.059 97.368 284.185 97.368C285.536 97.368 286.662 97.0141 287.563 96.3065L289.251 100.601C288.544 101.18 287.675 101.614 286.646 101.903C285.617 102.193 284.555 102.338 283.461 102.338ZM270.337 81.2523V76.4273H287.514V81.2523H270.337ZM295.865 111.698C294.61 111.698 293.356 111.489 292.101 111.071C290.847 110.653 289.801 110.074 288.965 109.334L291.377 104.895C291.989 105.442 292.68 105.876 293.452 106.198C294.224 106.519 295.012 106.68 295.816 106.68C296.91 106.68 297.795 106.407 298.47 105.86C299.146 105.313 299.773 104.396 300.352 103.11L301.848 99.7322L302.33 99.0085L312.077 76.2343H317.867L305.804 104.075C305 106.005 304.099 107.533 303.102 108.659C302.137 109.784 301.044 110.572 299.821 111.023C298.631 111.473 297.312 111.698 295.865 111.698ZM301.172 102.917L289.544 76.2343H295.816L305.274 98.4777L301.172 102.917Z" fill="#E6E7E6"/>
<path d="M226.233 45V11.2247H231.396L246.16 35.8807H243.458L257.982 11.2247H263.145L263.193 45H257.258L257.21 20.537H258.464L246.112 41.14H243.314L230.769 20.537H232.216V45H226.233ZM287.611 45V39.789L287.274 38.6792V29.5599C287.274 27.7907 286.743 26.4236 285.681 25.4586C284.62 24.4614 283.011 23.9628 280.856 23.9628C279.409 23.9628 277.977 24.188 276.562 24.6383C275.179 25.0887 274.005 25.7159 273.04 26.5201L270.675 22.1293C272.059 21.0678 273.699 20.2797 275.597 19.765C277.527 19.2182 279.521 18.9448 281.58 18.9448C285.311 18.9448 288.19 19.8455 290.217 21.6468C292.275 23.416 293.305 26.1663 293.305 29.8976V45H287.611ZM279.505 45.3378C277.575 45.3378 275.886 45.0161 274.439 44.3727C272.991 43.6972 271.866 42.7805 271.061 41.6225C270.289 40.4323 269.903 39.0974 269.903 37.6177C269.903 36.1702 270.241 34.8674 270.917 33.7094C271.624 32.5514 272.766 31.6346 274.342 30.9591C275.919 30.2836 278.009 29.9459 280.615 29.9459H288.094V33.9507H281.049C278.991 33.9507 277.607 34.2884 276.9 34.9639C276.192 35.6073 275.838 36.4114 275.838 37.3764C275.838 38.4701 276.272 39.3386 277.141 39.982C278.009 40.6253 279.216 40.947 280.76 40.947C282.239 40.947 283.558 40.6092 284.716 39.9337C285.906 39.2582 286.759 38.261 287.274 36.9422L288.287 40.561C287.708 42.0728 286.662 43.2469 285.15 44.0832C283.671 44.9196 281.789 45.3378 279.505 45.3378ZM297.523 45L308.862 30.2354L308.765 33.4682L297.957 19.2343H304.664L312.239 29.3669H309.682L317.306 19.2343H323.819L312.915 33.4682L312.963 30.2354L324.254 45H317.45L309.489 34.2402L311.998 34.5779L304.182 45H297.523Z" fill="#FF6812"/>
</svg>
