<svg width="46" height="51" viewBox="0 0 46 51" fill="none" xmlns="http://www.w3.org/2000/svg">
<path d="M22.4973 42.5312C22.4973 42.5312 7.55628 35.8257 7 14.678L22.4973 8.53125L37.9945 14.678C37.9945 14.678 38.7406 34.4686 22.7983 42.3849L22.4973 42.5312Z" fill="#F26822"/>
<path d="M23.2914 42.3849L23 42.5312V8.53125L37.9947 14.678C37.9947 14.678 38.7169 34.4686 23.2914 42.3849Z" fill="#F26822"/>
<path opacity="0.2" d="M23.2914 42.3849L23 42.5312V8.53125L37.9947 14.678C37.9947 14.678 38.7169 34.4686 23.2914 42.3849Z" fill="white"/>
<path d="M40.7721 24.2075C40.7721 24.2075 42.5564 16.0686 42.0841 12.2744L22.9224 4.80387L3.89843 12.2744V18.2639L43.1993 29.2272C43.1993 29.2272 39.3814 43.1328 22.9224 50.5313C22.9224 50.5313 5.34819 43.7292 1.66804 25.2691L5.79425 26.9992C5.79425 26.9992 10.688 41.5011 22.9224 45.9572C22.9224 45.9572 35.8324 39.2665 37.7282 31.5404L0.237949 21.2259C0.237949 21.2259 -0.0703674 10.3478 0.0149123 9.59417C0.100192 8.84057 22.9748 0.53125 22.9748 0.53125L45.9348 9.56798C45.9348 9.56798 46.4924 20.1512 44.3473 26.049L40.7721 24.2075Z" fill="white"/>
<path opacity="0.2" d="M23 0.53125V4.91132L42.0912 12.523C42.0912 12.523 42.4839 16.0284 40.7823 24.6817L44.3492 26.5312C44.3492 26.5312 46.3912 21.824 45.933 9.73873L23 0.53125Z" fill="#231F20"/>
</svg>
